<svg xmlns="http://www.w3.org/2000/svg" width="1024" height="512" viewBox="0 0 1024 512">
  <defs>
    <linearGradient id="ocean" x1="0%" y1="0%" x2="100%" y2="0%">
      <stop offset="0%" style="stop-color:#4A90E2;stop-opacity:1" />
      <stop offset="100%" style="stop-color:#357ABD;stop-opacity:1" />
    </linearGradient>
    <linearGradient id="land" x1="0%" y1="0%" x2="100%" y2="100%">
      <stop offset="0%" style="stop-color:#8FBC8F;stop-opacity:1" />
      <stop offset="50%" style="stop-color:#90EE90;stop-opacity:1" />
      <stop offset="100%" style="stop-color:#228B22;stop-opacity:1" />
    </linearGradient>
  </defs>
  
  <!-- Ocean background -->
  <rect width="1024" height="512" fill="url(#ocean)"/>
  
  <!-- Continental shapes (simplified) -->
  <!-- North America -->
  <path d="M100,100 Q200,80 300,120 Q350,140 320,200 Q280,250 200,230 Q120,210 100,150 Z" fill="url(#land)" stroke="#2F5233" stroke-width="1"/>
  
  <!-- South America -->
  <path d="M220,280 Q250,260 280,300 Q290,380 260,420 Q230,400 220,350 Z" fill="url(#land)" stroke="#2F5233" stroke-width="1"/>
  
  <!-- Europe -->
  <path d="M450,120 Q500,100 520,140 Q510,180 480,170 Q460,150 450,120 Z" fill="url(#land)" stroke="#2F5233" stroke-width="1"/>
  
  <!-- Africa -->
  <path d="M480,180 Q520,160 540,220 Q550,300 520,360 Q490,340 480,250 Z" fill="url(#land)" stroke="#2F5233" stroke-width="1"/>
  
  <!-- Asia -->
  <path d="M550,80 Q700,60 800,120 Q850,180 780,200 Q650,170 550,140 Z" fill="url(#land)" stroke="#2F5233" stroke-width="1"/>
  
  <!-- Australia -->
  <path d="M720,320 Q780,310 800,340 Q790,370 740,360 Q720,350 720,320 Z" fill="url(#land)" stroke="#2F5233" stroke-width="1"/>
  
  <!-- Grid lines for borders -->
  <defs>
    <pattern id="grid" width="50" height="50" patternUnits="userSpaceOnUse">
      <path d="M 50 0 L 0 0 0 50" fill="none" stroke="#DDDDDD" stroke-width="0.5" opacity="0.3"/>
    </pattern>
  </defs>
  <rect width="1024" height="512" fill="url(#grid)"/>
</svg>
